<svg xmlns="http://www.w3.org/2000/svg" width="256" height="256" fill="none"><path fill="#1E293B" d="M0 0h256v256H0z"/><mask id="a" fill="#fff"><path fill-rule="evenodd" d="M83 46H57.478v12.478H45V84h25.522V71.522H83V46ZM70.522 71.522V58.478H57.478v13.044h13.044Z" clip-rule="evenodd"/></mask><path fill="#2A3D5C" d="M57.478 46v-1h-1v1h1ZM83 46h1v-1h-1v1ZM45 58.478v-1h-1v1h1ZM45 84h-1v1h1v-1Zm25.522 0v1h1v-1h-1ZM83 71.522v1h1v-1h-1ZM70.522 58.478h1v-1h-1v1ZM57.478 71.522h-1v1h1v-1Zm0-24.522H83v-2H57.478v2Zm1 11.478V46h-2v12.478h2Zm-13.478 1h12.478v-2H45v2ZM46 84V58.478h-2V84h2Zm24.522-1H45v2h25.522v-2Zm-1-11.478V84h2V71.522h-2Zm13.478-1H70.522v2H83v-2ZM82 46v25.522h2V46h-2ZM69.522 58.478v13.044h2V58.478h-2Zm-12.044 1h13.044v-2H57.478v2Zm1 12.044V58.478h-2v13.044h2Zm12.044-1H57.478v2h13.044v-2Z" mask="url(#a)"/><mask id="b" fill="#fff"><path fill-rule="evenodd" d="M194 151h-25.522v12.478H156V189h25.522v-12.478H194V151Zm-12.478 25.522v-13.044h-13.044v13.044h13.044Z" clip-rule="evenodd"/></mask><path fill="#2A3D5C" d="M168.478 151v-1h-1v1h1ZM194 151h1v-1h-1v1Zm-38 12.478v-1h-1v1h1ZM156 189h-1v1h1v-1Zm25.522 0v1h1v-1h-1ZM194 176.522v1h1v-1h-1Zm-12.478-13.044h1v-1h-1v1Zm-13.044 13.044h-1v1h1v-1Zm0-24.522H194v-2h-25.522v2Zm1 11.478V151h-2v12.478h2Zm-13.478 1h12.478v-2H156v2ZM157 189v-25.522h-2V189h2Zm24.522-1H156v2h25.522v-2Zm-1-11.478V189h2v-12.478h-2Zm13.478-1h-12.478v2H194v-2ZM193 151v25.522h2V151h-2Zm-12.478 12.478v13.044h2v-13.044h-2Zm-12.044 1h13.044v-2h-13.044v2Zm1 12.044v-13.044h-2v13.044h2Zm12.044-1h-13.044v2h13.044v-2Z" mask="url(#b)"/><mask id="c" fill="#fff"><path fill-rule="evenodd" d="M156 189h-25.522v12.478H118V227h25.522v-12.478H156V189Zm-12.478 25.522v-13.044h-13.044v13.044h13.044Z" clip-rule="evenodd"/></mask><path fill="#2A3D5C" d="M130.478 189v-1h-1v1h1ZM156 189h1v-1h-1v1Zm-38 12.478v-1h-1v1h1ZM118 227h-1v1h1v-1Zm25.522 0v1h1v-1h-1ZM156 214.522v1h1v-1h-1Zm-12.478-13.044h1v-1h-1v1Zm-13.044 13.044h-1v1h1v-1Zm0-24.522H156v-2h-25.522v2Zm1 11.478V189h-2v12.478h2Zm-13.478 1h12.478v-2H118v2ZM119 227v-25.522h-2V227h2Zm24.522-1H118v2h25.522v-2Zm-1-11.478V227h2v-12.478h-2Zm13.478-1h-12.478v2H156v-2ZM155 189v25.522h2V189h-2Zm-12.478 12.478v13.044h2v-13.044h-2Zm-12.044 1h13.044v-2h-13.044v2Zm1 12.044v-13.044h-2v13.044h2Zm12.044-1h-13.044v2h13.044v-2Z" mask="url(#c)"/></svg>