<svg width="256" height="256" viewBox="0 0 256 256" fill="none" xmlns="http://www.w3.org/2000/svg">
<circle cx="62.5" cy="55.5" r="21" stroke="#2A3D5C"/>
<mask id="path-2-inside-1_2000_436" fill="white">
<path fill-rule="evenodd" clip-rule="evenodd" d="M5.38696 43.41C8.04389 72.8945 32.8236 95.9999 62.9999 95.9999C93.1762 95.9999 117.956 72.8945 120.613 43.41H5.38696Z"/>
</mask>
<path d="M5.38696 43.41V42.41H4.2928L4.391 43.4998L5.38696 43.41ZM120.613 43.41L121.609 43.4998L121.707 42.41H120.613V43.41ZM62.9999 94.9999C33.3458 94.9999 8.99383 72.2941 6.38293 43.3203L4.391 43.4998C7.09395 73.495 32.3014 96.9999 62.9999 96.9999V94.9999ZM119.617 43.3203C117.006 72.2941 92.654 94.9999 62.9999 94.9999V96.9999C93.6984 96.9999 118.906 73.495 121.609 43.4998L119.617 43.3203ZM120.613 42.41H5.38696V44.41H120.613V42.41Z" fill="#2A3D5C" mask="url(#path-2-inside-1_2000_436)"/>
<circle cx="173.5" cy="198.072" r="21" transform="rotate(-180 173.5 198.072)" stroke="#2A3D5C"/>
<mask id="path-5-inside-2_2000_436" fill="white">
<path fill-rule="evenodd" clip-rule="evenodd" d="M237.495 205.733C234.578 173.365 207.375 148 174.247 148C141.12 148 113.917 173.365 111 205.733L237.495 205.733Z"/>
</mask>
<path d="M237.495 205.733L237.495 206.733L238.589 206.733L238.491 205.643L237.495 205.733ZM111 205.733L110.004 205.643L109.906 206.733L111 206.733L111 205.733ZM174.247 149C206.853 149 233.628 173.966 236.499 205.823L238.491 205.643C235.528 172.765 207.897 147 174.247 147L174.247 149ZM111.996 205.823C114.867 173.966 141.642 149 174.247 149L174.247 147C140.598 147 112.967 172.765 110.004 205.643L111.996 205.823ZM111 206.733L237.495 206.733L237.495 204.733L111 204.733L111 206.733Z" fill="#2A3D5C" mask="url(#path-5-inside-2_2000_436)"/>
</svg>
